<?xml version="1.0" standalone="no"?>
<!DOCTYPE svg PUBLIC "-//W3C//DTD SVG 20010904//EN"
 "http://www.w3.org/TR/2001/REC-SVG-20010904/DTD/svg10.dtd">
<svg version="1.0" xmlns="http://www.w3.org/2000/svg"
 width="512.000000pt" height="512.000000pt" viewBox="0 0 512.000000 512.000000"
 preserveAspectRatio="xMidYMid meet">

<g transform="translate(0.000000,512.000000) scale(0.100000,-0.100000)"
fill="#000000" stroke="none">
<path d="M1700 4953 c-28 -10 -66 -38 -100 -72 -45 -45 -61 -73 -88 -143 -19
-49 -39 -88 -45 -88 -7 1 -58 5 -115 9 -119 10 -152 4 -169 -30 -6 -13 -23
-92 -36 -174 -14 -83 -49 -245 -77 -360 -64 -264 -116 -504 -175 -810 -59
-309 -126 -619 -176 -816 -21 -86 -64 -284 -94 -440 -68 -347 -119 -545 -186
-730 -47 -129 -50 -145 -40 -178 14 -46 88 -143 188 -248 141 -147 227 -174
938 -293 653 -110 765 -131 1430 -269 290 -61 722 -141 807 -150 106 -12 245
-13 323 -3 l50 7 11 50 c6 28 34 147 62 265 93 396 144 669 202 1085 42 294
89 573 209 1225 152 826 173 949 165 984 -3 17 -22 63 -42 101 -19 39 -64 151
-98 250 -51 143 -69 185 -93 205 -25 22 -30 33 -34 90 -11 162 -128 282 -287
296 -149 14 -246 -55 -330 -233 l-30 -63 -44 0 c-25 0 -56 4 -69 9 -22 9 -25
16 -29 78 -6 120 -85 241 -186 285 -65 29 -166 35 -230 14 -93 -31 -170 -118
-208 -234 -21 -67 -42 -79 -122 -66 l-57 9 -6 70 c-8 87 -42 159 -105 222 -66
65 -121 88 -219 88 -70 0 -87 -4 -134 -30 -29 -16 -69 -48 -88 -70 -39 -45
-90 -143 -99 -192 -6 -32 -8 -33 -58 -33 -28 0 -58 4 -65 9 -10 6 -17 37 -22
85 -17 175 -141 295 -313 302 -48 3 -86 -2 -116 -13z m200 -63 c18 -12 2 -12
-25 0 -13 6 -15 9 -5 9 8 0 22 -4 30 -9z m75 -52 c19 -22 19 -22 -10 2 -48 40
-51 43 -30 32 11 -6 29 -21 40 -34z m682 -14 c-3 -3 -12 -4 -19 -1 -8 3 -5 6
6 6 11 1 17 -2 13 -5z m-867 -15 c-14 -6 -39 -22 -55 -37 -17 -15 -14 -10 7
11 20 20 45 37 55 36 13 0 11 -3 -7 -10z m715 -7 c-29 -24 -85 -62 -85 -58 0
7 80 66 89 66 3 0 1 -4 -4 -8z m255 -39 l25 -28 -35 30 c-55 47 -56 48 -35 37
11 -6 31 -23 45 -39z m-1159 -17 c-14 -30 -27 -53 -29 -51 -7 7 42 105 52 105
1 0 -9 -24 -23 -54z m329 29 c13 -14 21 -25 18 -25 -2 0 -15 11 -28 25 -13 14
-21 25 -18 25 2 0 15 -11 28 -25z m-41 -46 c22 -24 35 -78 25 -104 -6 -16 -16
-17 -93 -11 -47 4 -90 11 -94 16 -12 11 21 77 51 100 33 26 86 26 111 -1z
m728 15 c-3 -3 -12 -4 -19 -1 -8 3 -5 6 6 6 11 1 17 -2 13 -5z m81 -21 c15
-16 18 -20 6 -10 -12 10 -34 22 -50 27 -25 7 -26 8 -7 9 13 1 35 -11 51 -26z
m802 17 c18 -12 2 -12 -25 0 -13 6 -15 9 -5 9 8 0 22 -4 30 -9z m-1096 -35
c-9 -14 -18 -25 -21 -25 -5 0 5 18 20 38 17 22 18 13 1 -13z m1171 -17 c19
-22 19 -22 -10 2 -48 40 -51 43 -30 32 11 -6 29 -21 40 -34z m-1608 10 c-3 -8
-6 -5 -6 6 -1 11 2 17 5 13 3 -3 4 -12 1 -19z m-284 -3 c-3 -9 -8 -14 -10 -11
-3 3 -2 9 2 15 9 16 15 13 8 -4z m1587 2 c0 -2 -12 -14 -27 -28 l-28 -24 24
28 c23 25 31 32 31 24z m-615 -23 c23 -9 45 -57 45 -99 l0 -35 -67 1 c-38 1
-80 4 -95 8 -26 6 -26 7 -13 44 25 72 74 102 130 81z m-678 -41 c-3 -10 -5 -4
-5 12 0 17 2 24 5 18 2 -7 2 -21 0 -30z m60 5 c-3 -7 -5 -2 -5 12 0 14 2 19 5
13 2 -7 2 -19 0 -25z m1583 -22 c0 -12 -5 -7 -19 24 -11 24 -11 24 3 6 9 -11
16 -24 16 -30z m-90 9 c13 -14 21 -25 18 -25 -2 0 -15 11 -28 25 -13 14 -21
25 -18 25 2 0 15 -11 28 -25z m-1973 -7 c-3 -8 -6 -5 -6 6 -1 11 2 17 5 13 3
-3 4 -12 1 -19z m1646 -13 c-9 -19 -18 -33 -21 -31 -4 5 26 66 33 66 3 0 -3
-16 -12 -35z m-740 10 c-3 -9 -8 -14 -10 -11 -3 3 -2 9 2 15 9 16 15 13 8 -4z
m364 -37 c-2 -13 -4 -5 -4 17 -1 22 1 32 4 23 2 -10 2 -28 0 -40z m-816 14
c-7 -2 -18 1 -23 6 -8 8 -4 9 13 5 13 -4 18 -8 10 -11z m1293 -7 c-9 -14 -18
-25 -21 -25 -5 0 5 18 20 38 17 22 18 13 1 -13z m172 2 c21 -18 28 -35 32 -75
l5 -52 -54 0 c-51 0 -125 13 -135 23 -8 8 17 61 39 86 42 45 75 50 113 18z
m889 3 c10 -11 16 -20 13 -20 -3 0 -13 9 -23 20 -10 11 -16 20 -13 20 3 0 13
-9 23 -20z m-2818 -82 c-2 -13 -4 -3 -4 22 0 25 2 35 4 23 2 -13 2 -33 0 -45z
m90 30 c-3 -7 -5 -2 -5 12 0 14 2 19 5 13 2 -7 2 -19 0 -25z m2668 7 l30 -25
-40 22 c-50 27 -51 28 -34 28 8 0 28 -11 44 -25z m-738 -7 c-3 -8 -6 -5 -6 6
-1 11 2 17 5 13 3 -3 4 -12 1 -19z m463 18 c0 -2 -8 -10 -17 -17 -16 -13 -17
-12 -4 4 13 16 21 21 21 13z m89 -43 c-40 -47 -42 -49 -34 -33 10 19 47 60 53
60 3 0 -5 -12 -19 -27z m-1782 -50 c-3 -10 -5 -2 -5 17 0 19 2 27 5 18 2 -10
2 -26 0 -35z m2022 -2 c0 -14 -1 -14 -6 -1 -3 8 -10 24 -15 35 -9 20 -9 20 6
1 9 -11 16 -27 15 -35z m-81 18 c19 -20 32 -61 32 -100 0 -16 -8 -19 -44 -19
-42 0 -146 16 -153 24 -8 8 37 85 59 100 32 23 83 20 106 -5z m-2721 -31 c-3
-8 -6 -5 -6 6 -1 11 2 17 5 13 3 -3 4 -12 1 -19z m860 -25 c-3 -10 -5 -2 -5
17 0 19 2 27 5 18 2 -10 2 -26 0 -35z m2003 -53 l-11 -25 6 25 c2 14 6 43 7
65 l1 40 4 -40 c2 -23 -1 -52 -7 -65z m-2941 72 c5 -10 11 -31 13 -48 l3 -29
-60 1 c-70 1 -119 21 -123 50 -4 28 29 42 100 43 45 1 59 -3 67 -17z m158 -4
c-3 -8 -6 -5 -6 6 -1 11 2 17 5 13 3 -3 4 -12 1 -19z m1988 12 c-3 -5 -12 -10
-18 -10 -7 0 -6 4 3 10 19 12 23 12 15 0z m-1635 -30 c287 -20 268 -16 280
-58 5 -20 10 -43 10 -49 0 -18 -93 -17 -300 2 -91 8 -185 16 -210 17 l-45 3
-3 54 -3 53 63 -6 c35 -3 128 -10 208 -16z m347 -12 c-3 -7 -5 -2 -5 12 0 14
2 19 5 13 2 -7 2 -19 0 -25z m810 -50 c-2 -18 -4 -6 -4 27 0 33 2 48 4 33 2
-15 2 -42 0 -60z m90 50 c-3 -8 -6 -5 -6 6 -1 11 2 17 5 13 3 -3 4 -12 1 -19z
m1130 -25 c-3 -10 -5 -2 -5 17 0 19 2 27 5 18 2 -10 2 -26 0 -35z m-1527 -34
c80 -10 164 -19 187 -19 42 0 42 0 58 -52 8 -28 13 -54 10 -57 -3 -3 -117 7
-253 22 -136 15 -266 27 -289 27 l-43 0 0 56 0 57 93 -7 c50 -4 157 -16 237
-27z m-413 -21 c-3 -8 -6 -5 -6 6 -1 11 2 17 5 13 3 -3 4 -12 1 -19z m1520
-85 c-2 -21 -4 -4 -4 37 0 41 2 58 4 38 2 -21 2 -55 0 -75z m-790 45 c-3 -7
-5 -2 -5 12 0 14 2 19 5 13 2 -7 2 -19 0 -25z m870 -5 c-3 -10 -5 -4 -5 12 0
17 2 24 5 18 2 -7 2 -21 0 -30z m-365 -33 c102 -15 191 -31 197 -34 10 -7 35
-85 29 -91 -2 -2 -104 10 -228 25 -124 16 -251 31 -282 35 l-58 6 0 51 0 50
78 -7 c42 -4 161 -20 264 -35z m580 -94 c88 -18 148 -40 148 -56 0 -25 -54
-32 -160 -20 -57 6 -108 14 -112 16 -10 6 -11 68 -2 77 4 4 16 5 28 2 12 -2
56 -11 98 -19z m-208 -40 c-3 -9 -12 -16 -20 -16 -11 0 -10 4 4 18 20 22 25
21 16 -2z m-2633 -16 c65 -5 189 -21 277 -34 88 -14 274 -37 414 -51 282 -28
337 -35 858 -105 445 -60 574 -73 1035 -105 198 -14 370 -27 382 -30 26 -6 31
-31 21 -100 -5 -27 -15 -108 -23 -180 -62 -523 -144 -881 -444 -1940 -60 -214
-135 -486 -165 -602 -30 -117 -60 -221 -66 -232 -25 -47 -10 -49 -965 115
-1081 185 -2103 354 -2142 354 -96 0 -107 23 -70 143 70 226 211 795 277 1112
23 110 82 360 132 555 50 195 116 456 148 580 32 124 69 290 84 369 14 79 32
151 38 159 9 10 23 12 53 7 22 -3 92 -10 156 -15z m3096 -588 c-4 -48 -16
-149 -27 -225 -22 -151 -25 -217 -10 -217 14 0 29 34 41 92 8 45 38 292 39
323 0 6 5 3 10 -5 18 -28 11 -172 -16 -295 -23 -106 -54 -255 -122 -585 -42
-204 -37 -249 12 -100 13 41 28 76 33 77 5 2 -3 -61 -19 -139 -16 -79 -76
-420 -133 -758 -117 -693 -154 -886 -226 -1181 -54 -221 -63 -244 -79 -219
-24 36 -21 70 29 278 63 268 90 402 131 652 17 107 46 269 65 360 18 91 36
190 39 220 l7 55 -22 -39 c-23 -43 -43 -131 -158 -707 -82 -408 -138 -658
-151 -672 -12 -13 -57 53 -71 103 -11 44 -10 51 38 180 101 270 154 490 152
634 0 70 -1 68 -80 -219 -79 -288 -145 -515 -153 -523 -3 -2 -10 -1 -17 3 -28
18 5 166 147 668 245 867 399 1524 499 2127 30 183 33 200 42 200 3 0 3 -39 0
-88z m106 -212 c-3 -12 -8 -19 -11 -16 -5 6 5 36 12 36 2 0 2 -9 -1 -20z m-16
-82 c-3 -7 -5 -2 -5 12 0 14 2 19 5 13 2 -7 2 -19 0 -25z m-10 -50 c-3 -8 -6
-5 -6 6 -1 11 2 17 5 13 3 -3 4 -12 1 -19z m-10 -50 c-3 -8 -6 -5 -6 6 -1 11
2 17 5 13 3 -3 4 -12 1 -19z m-10 -50 c-3 -8 -6 -5 -6 6 -1 11 2 17 5 13 3 -3
4 -12 1 -19z m-10 -40 c-3 -8 -6 -5 -6 6 -1 11 2 17 5 13 3 -3 4 -12 1 -19z
m-10 -50 c-3 -8 -6 -5 -6 6 -1 11 2 17 5 13 3 -3 4 -12 1 -19z m-10 -50 c-3
-8 -6 -5 -6 6 -1 11 2 17 5 13 3 -3 4 -12 1 -19z m3 -66 c0 -7 -4 -10 -10 -7
-5 3 -10 16 -10 28 0 18 2 19 10 7 5 -8 10 -21 10 -28z m-33 -64 c-3 -8 -6 -5
-6 6 -1 11 2 17 5 13 3 -3 4 -12 1 -19z m20 0 c-3 -8 -6 -5 -6 6 -1 11 2 17 5
13 3 -3 4 -12 1 -19z m-30 -50 c-3 -8 -6 -5 -6 6 -1 11 2 17 5 13 3 -3 4 -12
1 -19z m20 -10 c-3 -8 -6 -5 -6 6 -1 11 2 17 5 13 3 -3 4 -12 1 -19z m-30 -40
c-3 -8 -6 -5 -6 6 -1 11 2 17 5 13 3 -3 4 -12 1 -19z m20 -10 c-3 -8 -6 -5 -6
6 -1 11 2 17 5 13 3 -3 4 -12 1 -19z m-30 -40 c-3 -8 -6 -5 -6 6 -1 11 2 17 5
13 3 -3 4 -12 1 -19z m-10 -40 c-3 -8 -6 -5 -6 6 -1 11 2 17 5 13 3 -3 4 -12
1 -19z m-3516 -1548 c274 -34 1695 -285 2379 -421 364 -72 448 -95 429 -114
-9 -8 -195 13 -434 50 -121 18 -245 36 -275 40 -30 4 -111 20 -180 35 -133 31
-270 51 -270 39 0 -23 115 -59 255 -79 44 -7 167 -30 273 -51 235 -48 360 -67
518 -78 126 -9 174 -24 194 -60 25 -48 4 -51 -129 -22 -47 10 -124 24 -171 31
-47 6 -123 18 -170 25 -47 7 -112 16 -145 19 l-60 6 44 -21 c44 -21 88 -31
311 -69 153 -26 348 -68 371 -81 20 -10 44 -48 36 -56 -3 -3 -212 38 -464 91
-575 119 -1381 279 -1978 391 -253 48 -462 89 -464 91 -12 12 25 7 274 -33
461 -73 962 -139 974 -127 11 10 -84 36 -249 68 -356 68 -485 106 -366 106
169 0 -112 71 -479 120 -448 61 -522 73 -542 86 -13 8 -23 19 -23 24 0 16 165
11 341 -10z m74 -125 c83 -14 170 -29 194 -33 24 -4 46 -13 49 -20 5 -15 -3
-15 -313 14 -88 8 -169 17 -180 21 -24 7 -55 33 -55 46 0 14 123 2 305 -28z
m353 -71 c11 -12 11 -14 -5 -14 -34 0 -97 22 -84 29 16 11 73 1 89 -15z m59 0
c-3 -3 -12 -4 -19 -1 -8 3 -5 6 6 6 11 1 17 -2 13 -5z m-504 -11 c-7 -2 -21
-2 -30 0 -10 3 -4 5 12 5 17 0 24 -2 18 -5z m580 0 c-7 -2 -19 -2 -25 0 -7 3
-2 5 12 5 14 0 19 -2 13 -5z m-86 -9 c-3 -3 -12 -4 -19 -1 -8 3 -5 6 6 6 11 1
17 -2 13 -5z m160 0 c-3 -3 -12 -4 -19 -1 -8 3 -5 6 6 6 11 1 17 -2 13 -5z
m-670 -10 c-3 -3 -12 -4 -19 -1 -8 3 -5 6 6 6 11 1 17 -2 13 -5z m576 -1 c-7
-2 -19 -2 -25 0 -7 3 -2 5 12 5 14 0 19 -2 13 -5z m90 -10 c-7 -2 -21 -2 -30
0 -10 3 -4 5 12 5 17 0 24 -2 18 -5z"/>
<path d="M1345 3500 c-4 -12 -4 -24 -1 -27 18 -18 224 -39 566 -58 158 -8 467
-36 725 -64 684 -76 986 -101 1217 -101 92 0 118 3 118 13 0 35 -67 46 -510
87 -179 16 -509 48 -735 70 -552 54 -840 78 -1020 85 -82 3 -196 8 -252 11
-97 5 -102 4 -108 -16z"/>
<path d="M1247 2864 c-16 -27 17 -38 175 -61 489 -68 872 -111 1228 -137 241
-18 789 -41 940 -40 128 1 210 18 210 44 0 29 -50 39 -254 50 -430 24 -690 42
-1041 75 -203 19 -455 41 -560 50 -236 20 -690 32 -698 19z"/>
<path d="M1120 2261 c-52 -9 -45 -32 15 -48 99 -25 416 -73 715 -108 168 -19
445 -53 615 -74 418 -54 582 -69 831 -81 192 -8 246 -7 312 6 27 5 29 30 3 43
-10 6 -151 22 -312 36 -346 30 -583 57 -1119 124 -217 28 -453 55 -525 61 -71
6 -188 17 -260 25 -193 21 -236 23 -275 16z"/>
<path d="M928 1629 c-25 -14 -22 -36 5 -41 12 -3 95 -22 184 -42 538 -120
1201 -211 2016 -277 256 -20 325 -20 312 1 -10 16 -75 29 -245 50 -170 21
-432 60 -885 129 -143 22 -424 65 -625 95 -201 31 -423 65 -495 76 -140 22
-240 25 -267 9z"/>
<path d="M4436 3045 c-11 -31 -18 -115 -11 -142 7 -25 10 -21 26 42 10 39 19
80 19 93 0 25 -25 30 -34 7z"/>
</g>
</svg>
